<?xml version="1.0" encoding="UTF-8"?>
<svg xmlns="http://www.w3.org/2000/svg" xmlns:xlink="http://www.w3.org/1999/xlink" width="256px" height="256px"
    viewBox="0 0 256 256" version="1.1">

    <defs>
        <radialGradient id="backgroundGradient" cx="0%" cy="0%" r="141.42%">
            <stop offset="0%" style="stop-color:#6A75AF;stop-opacity:1" />
            <stop offset="100%" style="stop-color:#2B2F40;stop-opacity:1" />
        </radialGradient>
    </defs>


    <rect width="256" height="256" fill="url(#backgroundGradient)" />

    <g id="surface1">
        <path
            style="fill:none;stroke-width:1.5;stroke-linecap:round;stroke-linejoin:round;stroke:rgb(100%,100%,100%);stroke-opacity:1;stroke-miterlimit:4;"
            d="M 20.25 8.511108 C 21.134033 8.794922 21.75 9.639038 21.75 10.608032 L 21.75 14.894165 C 21.75 16.030151 20.902954 16.994019 19.769897 17.087036 C 19.430054 17.114136 19.089844 17.139038 18.75 17.15918 L 18.75 20.25 L 15.75 17.25 C 14.396118 17.25 13.056152 17.195068 11.730103 17.087036 C 11.441162 17.063599 11.160645 16.981201 10.905029 16.844971 M 20.25 8.511108 C 20.095459 8.461304 19.935791 8.429443 19.773926 8.415894 C 17.095825 8.193604 14.404175 8.193604 11.726074 8.415894 C 10.594849 8.51001 9.75 9.473145 9.75 10.608032 L 9.75 14.894165 C 9.75 15.730957 10.209961 16.473999 10.905029 16.844971 M 20.25 8.511108 L 20.25 6.636841 C 20.25 5.015991 19.0979 3.61084 17.489868 3.4021 C 15.420776 3.133667 13.336304 2.999634 11.25 3 C 9.135132 3 7.052124 3.136963 5.010132 3.4021 C 3.4021 3.61084 2.25 5.015991 2.25 6.636841 L 2.25 12.863159 C 2.25 14.484009 3.4021 15.88916 5.010132 16.0979 C 5.586914 16.172974 6.166992 16.238159 6.75 16.291992 L 6.75 21 L 10.905029 16.844971 "
            transform="matrix(10.666667,0,0,10.666667,0,0)" />
    </g>
</svg>